<svg xmlns="http://www.w3.org/2000/svg" viewBox="0 0 64 64" role="img" aria-label="Akpu4All favicon">
  <defs>
    <linearGradient id="akpuPin" x1="0" y1="0" x2="1" y2="1">
      <stop offset="0%" stop-color="#0f766e"/>
      <stop offset="100%" stop-color="#14532d"/>
    </linearGradient>
  </defs>
  <path d="M32 4c-12.15 0-22 9.85-22 22 0 16.2 18.3 32.4 21.2 34.9a1.2 1.2 0 0 0 1.6 0C35.7 58.4 54 42.2 54 26 54 13.85 44.15 4 32 4z" fill="url(#akpuPin)"/>
  <circle cx="32" cy="26" r="12" fill="#fefce8"/>
  <path d="M32 18l7 16h-4l-1.3-3h-3.4L29 34h-4l7-16zm0 6.2l-1.6 4h3.2L32 24.2z" fill="#0b3d2e"/>
</svg>
